<svg
  width="24"
  height="24"
  viewBox="0 0 24 24"
  fill="none"
  xmlns="http://www.w3.org/2000/svg"
>
  <path
    fill-rule="evenodd"
    clip-rule="evenodd"
    d="M12 2.25C10.2051 2.25 8.75 3.70507 8.75 5.5C8.75 7.29493 10.2051 8.75 12 8.75C13.7949 8.75 15.25 7.29493 15.25 5.5C15.25 3.70507 13.7949 2.25 12 2.25ZM10.25 5.5C10.25 4.5335 11.0335 3.75 12 3.75C12.9665 3.75 13.75 4.5335 13.75 5.5C13.75 6.4665 12.9665 7.25 12 7.25C11.0335 7.25 10.25 6.4665 10.25 5.5ZM8 10.75C6.48122 10.75 5.25 11.9812 5.25 13.5V15C5.25 15.3033 5.37533 15.5767 5.57709 15.7728C6.3002 18.1903 8.95585 19.75 12 19.75C15.0442 19.75 17.6998 18.1903 18.4229 15.7728C18.6247 15.5767 18.75 15.3033 18.75 15V13.5C18.75 11.9812 17.5188 10.75 16 10.75H8ZM6.75 13.5C6.75 12.8096 7.30964 12.25 8 12.25H16C16.6904 12.25 17.25 12.8096 17.25 13.5V14.7241C16.7058 16.6489 14.5544 18.25 12 18.25C9.44557 18.25 7.29422 16.6489 6.75 14.7241V13.5ZM17.25 10.25C17.25 9.83579 17.5858 9.5 18 9.5C19.7949 9.5 21.25 10.9551 21.25 12.75V13.75C21.25 14.8366 20.6654 15.7849 19.7949 16.3135C19.4406 16.5308 18.9794 16.4148 18.7621 16.0605C18.5448 15.7062 18.6608 15.245 19.0151 15.0277C19.5111 14.7291 19.75 14.2682 19.75 13.75V12.75C19.75 11.7835 18.9665 11 18 11C17.5858 11 17.25 10.6642 17.25 10.25ZM6 9.5C6.41421 9.5 6.75 9.83579 6.75 10.25C6.75 10.6642 6.41421 11 6 11C5.0335 11 4.25 11.7835 4.25 12.75V13.75C4.25 14.2682 4.48893 14.7291 4.98486 15.0277C5.33921 15.245 5.45521 15.7062 5.23791 16.0605C5.02060 16.4148 4.55941 16.5308 4.20506 16.3135C3.33456 15.7849 2.75 14.8366 2.75 13.75V12.75C2.75 10.9551 4.20507 9.5 6 9.5ZM16.75 5.5C16.75 5.08579 17.0858 4.75 17.5 4.75C19.0188 4.75 20.25 5.98122 20.25 7.5C20.25 9.01878 19.0188 10.25 17.5 10.25C17.0858 10.25 16.75 9.91421 16.75 9.5C16.75 9.08579 17.0858 8.75 17.5 8.75C18.1904 8.75 18.75 8.19036 18.75 7.5C18.75 6.80964 18.1904 6.25 17.5 6.25C17.0858 6.25 16.75 5.91421 16.75 5.5ZM6.5 4.75C6.91421 4.75 7.25 5.08579 7.25 5.5C7.25 5.91421 6.91421 6.25 6.5 6.25C5.80964 6.25 5.25 6.80964 5.25 7.5C5.25 8.19036 5.80964 8.75 6.5 8.75C6.91421 8.75 7.25 9.08579 7.25 9.5C7.25 9.91421 6.91421 10.25 6.5 10.25C4.98122 10.25 3.75 9.01878 3.75 7.5C3.75 5.98122 4.98122 4.75 6.5 4.75Z"
    fill="currentColor"
  />
</svg>