<svg
  width="24"
  height="24"
  viewBox="0 0 24 24"
  fill="none"
  xmlns="http://www.w3.org/2000/svg"
>
  <path
    fill-rule="evenodd"
    clip-rule="evenodd"
    d="M4.25 4C4.25 2.75736 5.25736 1.75 6.5 1.75H14C14.1989 1.75 14.3897 1.82902 14.5303 1.96967L19.5303 6.96967C19.671 7.11032 19.75 7.30109 19.75 7.5V20C19.75 21.2426 18.7426 22.25 17.5 22.25H6.5C5.25736 22.25 4.25 21.2426 4.25 20V4ZM6.5 3.25C6.08579 3.25 5.75 3.58579 5.75 4V20C5.75 20.4142 6.08579 20.75 6.5 20.75H17.5C17.9142 20.75 18.25 20.4142 18.25 20V8.25H14C13.5858 8.25 13.25 7.91421 13.25 7.5V3.25H6.5ZM14.75 4.31066L17.1893 6.75H14.75V4.31066ZM8 11.25C7.58579 11.25 7.25 11.5858 7.25 12C7.25 12.4142 7.58579 12.75 8 12.75H16C16.4142 12.75 16.75 12.4142 16.75 12C16.75 11.5858 16.4142 11.25 16 11.25H8ZM7.25 16C7.25 15.5858 7.58579 15.25 8 15.25H13C13.4142 15.25 13.75 15.5858 13.75 16C13.75 16.4142 13.4142 16.75 13 16.75H8C7.58579 16.75 7.25 16.4142 7.25 16Z"
    fill="currentColor"
  />
</svg>