<svg
  width="24"
  height="24"
  viewBox="0 0 24 24"
  fill="none"
  xmlns="http://www.w3.org/2000/svg"
>
  <path
    fill-rule="evenodd"
    clip-rule="evenodd"
    d="M12 2.25C9.92893 2.25 8.25 3.92893 8.25 6V6.70835C8.25 7.04475 8.1225 7.49105 7.81846 8.06231C7.79964 8.09773 7.78005 8.13417 7.75972 8.17157L5.95555 11.4733C5.55967 12.1992 5.25 12.9925 5.25 13.7857C5.25 15.3081 6.4919 16.5 8 16.5H9.31206C9.62392 18.0826 11.0226 19.275 12.7 19.275C14.3774 19.275 15.7761 18.0826 16.0879 16.5H17.4C18.9081 16.5 20.15 15.3081 20.15 13.7857C20.15 12.9925 19.8403 12.1992 19.4445 11.4733L17.6403 8.17157C17.6199 8.13417 17.6004 8.09773 17.5815 8.06231C17.2775 7.49105 17.15 7.04475 17.15 6.70835V6C17.15 3.92893 15.4711 2.25 13.4 2.25H12ZM14.5343 16.5H10.8657C11.1464 17.2431 11.8587 17.775 12.7 17.775C13.5413 17.775 14.2536 17.2431 14.5343 16.5ZM9.75 6C9.75 4.75736 10.7574 3.75 12 3.75H13.4C14.6427 3.75 15.65 4.75736 15.65 6V6.70835C15.65 7.30752 15.8552 7.97186 16.2266 8.65417L18.0307 11.9559C18.3417 12.5274 18.65 13.1607 18.65 13.7857C18.65 14.4796 18.0916 15 17.4 15H8C7.30844 15 6.75 14.4796 6.75 13.7857C6.75 13.1607 7.05833 12.5274 7.36932 11.9559L9.1735 8.65417C9.54481 7.97186 9.75 7.30752 9.75 6.70835V6Z"
    fill="currentColor"
  />
</svg>