<svg
  width="24"
  height="24"
  viewBox="0 0 24 24"
  fill="none"
  xmlns="http://www.w3.org/2000/svg"
>
  <path
    fill-rule="evenodd"
    clip-rule="evenodd"
    d="M11.4697 2.46967C11.7626 2.17678 12.2374 2.17678 12.5303 2.46967L16.5303 6.46967C16.8232 6.76256 16.8232 7.23744 16.5303 7.53033C16.2374 7.82322 15.7626 7.82322 15.4697 7.53033L12.75 4.81066V15C12.75 15.4142 12.4142 15.75 12 15.75C11.5858 15.75 11.25 15.4142 11.25 15V4.81066L8.53033 7.53033C8.23744 7.82322 7.76256 7.82322 7.46967 7.53033C7.17678 7.23744 7.17678 6.76256 7.46967 6.46967L11.4697 2.46967ZM4 13.25C4.41421 13.25 4.75 13.5858 4.75 14V18.5C4.75 18.9142 5.08579 19.25 5.5 19.25H18.5C18.9142 19.25 19.25 18.9142 19.25 18.5V14C19.25 13.5858 19.5858 13.25 20 13.25C20.4142 13.25 20.75 13.5858 20.75 14V18.5C20.75 19.7426 19.7426 20.75 18.5 20.75H5.5C4.25736 20.75 3.25 19.7426 3.25 18.5V14C3.25 13.5858 3.58579 13.25 4 13.25Z"
    fill="currentColor"
  />
</svg>